<?xml version="1.0" encoding="UTF-8" standalone="no"?>
<!-- Created with Inkscape (http://www.inkscape.org/) -->

<svg
   width="512"
   height="512"
   viewBox="0 0 135.46666 135.46666"
   version="1.1"
   id="svg1"
   xml:space="preserve"
   inkscape:export-filename="logo-48.png"
   inkscape:export-xdpi="96"
   inkscape:export-ydpi="96"
   inkscape:version="1.4 (e7c3feb100, 2024-10-09)"
   sodipodi:docname="logo.svg"
   xmlns:inkscape="http://www.inkscape.org/namespaces/inkscape"
   xmlns:sodipodi="http://sodipodi.sourceforge.net/DTD/sodipodi-0.dtd"
   xmlns:xlink="http://www.w3.org/1999/xlink"
   xmlns="http://www.w3.org/2000/svg"
   xmlns:svg="http://www.w3.org/2000/svg"><sodipodi:namedview
     id="namedview1"
     pagecolor="#505050"
     bordercolor="#eeeeee"
     borderopacity="1"
     inkscape:showpageshadow="0"
     inkscape:pageopacity="0"
     inkscape:pagecheckerboard="0"
     inkscape:deskcolor="#505050"
     inkscape:document-units="mm"
     inkscape:zoom="0.26101993"
     inkscape:cx="-337.13901"
     inkscape:cy="80.453626"
     inkscape:window-width="1985"
     inkscape:window-height="1211"
     inkscape:window-x="487"
     inkscape:window-y="116"
     inkscape:window-maximized="0"
     inkscape:current-layer="svg1"
     showguides="false" /><defs
     id="defs1"><inkscape:path-effect
       effect="fillet_chamfer"
       id="path-effect7"
       is_visible="true"
       lpeversion="1"
       nodesatellites_param="F,0,0,1,0,0.9959907,0,1 @ F,0,0,1,0,0,0,1 @ F,0,0,1,0,1.0399186,0,1 @ F,0,0,1,0,1.2157215,0,1 @ F,0,0,1,0,1.4424504,0,1 @ F,0,0,1,0,1.6752131,0,1 @ F,0,0,1,0,0.18053538,0,1 @ F,0,0,1,0,0.98640759,0,1"
       radius="0"
       unit="px"
       method="auto"
       mode="F"
       chamfer_steps="1"
       flexible="false"
       use_knot_distance="true"
       apply_no_radius="true"
       apply_with_radius="true"
       only_selected="false"
       hide_knots="false" /><inkscape:path-effect
       effect="fillet_chamfer"
       id="path-effect6"
       is_visible="true"
       lpeversion="1"
       nodesatellites_param="F,0,0,1,0,2.0393748,0,1 @ F,0,0,1,0,2.2000485,0,1 @ F,0,1,1,0,2.2000485,0,1"
       radius="0"
       unit="px"
       method="auto"
       mode="F"
       chamfer_steps="1"
       flexible="false"
       use_knot_distance="true"
       apply_no_radius="true"
       apply_with_radius="true"
       only_selected="false"
       hide_knots="false" /><inkscape:path-effect
       effect="fillet_chamfer"
       id="path-effect4"
       is_visible="true"
       lpeversion="1"
       nodesatellites_param="F,0,0,1,0,0,0,1 @ F,0,0,1,0,7.041226,0,1 @ F,0,0,1,0,6.3417236,0,1 @ F,0,0,1,0,0,0,1 @ F,0,0,1,0,0,0,1"
       radius="0"
       unit="px"
       method="auto"
       mode="F"
       chamfer_steps="1"
       flexible="false"
       use_knot_distance="true"
       apply_no_radius="true"
       apply_with_radius="true"
       only_selected="false"
       hide_knots="false" /><color-profile
       name="sRGB"
       xlink:href="file:///app/share/color/icc/colord/sRGB.icc"
       id="color-profile2" /></defs><g
     inkscape:label="Capa 1"
     inkscape:groupmode="layer"
     id="layer1" /><g
     id="g2"
     inkscape:export-filename="logo-512.png"
     inkscape:export-xdpi="96"
     inkscape:export-ydpi="96"
     transform="matrix(10.666667,0,0,10.666667,-1.0172526e-6,-1.0172527e-6)"><rect
       style="fill:#ffffff;stroke:none;stroke-width:0.701166"
       id="rect1"
       width="12.7"
       height="12.7"
       x="9.5367433e-08"
       y="9.5367433e-08"
       ry="1.2767289" /><g
       id="g1"
       transform="matrix(0.14933556,0,0,0.14787335,0.4260185,0.41846824)"><path
         id="path1"
         style="fill:none;stroke:#1c385f;stroke-width:2.2633;stroke-linecap:round;stroke-dasharray:none;stroke-opacity:1"
         d="m 59.097317,28.181984 c 0.991102,0.763918 1.949224,2.138668 2.466694,2.829869 3.415667,4.562388 5.438717,10.227719 5.438717,16.365556 0,15.096042 -12.237759,27.333801 -27.333801,27.333801 -15.096042,0 -27.333801,-12.237759 -27.3338,-27.333801 0,-15.09604 12.237759,-27.333798 27.3338,-27.333799 1.176883,0 2.306566,0.07113 3.389316,0.202412"
         sodipodi:nodetypes="csssssc" /><path
         style="fill:#18355d;fill-opacity:1;stroke:#18355d;stroke-width:1.17615;stroke-dasharray:none;stroke-opacity:1"
         d="M 93.232957,91.831755 107.32164,74.525084 121.41032,57.218413 a 0.46087899,0.46087899 63.05 0 0 -0.38193,-0.75119 l -3.99273,0.212582 a 0.54580375,0.54580375 62.774411 0 1 -0.45559,-0.885522 l 7.8014,-9.77388 a 0.86832685,0.86832685 69.643611 0 0 -0.51756,-1.394945 L 113.48054,42.66524 a 2.4395477,2.4395477 156.21373 0 0 -2.52733,1.11396 L 98.908757,63.252896 a 0.07636345,0.07636345 54.664281 0 0 0.08135,0.114749 l 6.51363,-1.433089 a 0.49628605,0.49628605 50.883733 0 1 0.5594,0.68794 L 93.01206,91.69553 a 0.13087754,0.13087754 31.661659 0 0 0.220897,0.136225 z"
         id="path4"
         inkscape:path-effect="#path-effect7"
         inkscape:original-d="m 92.604167,92.604167 14.717473,-18.079083 14.7452,-18.11315 -6.24518,0.332507 9.45966,-11.851398 -13.44692,-2.538568 -13.020608,21.051962 7.653318,-1.683835 z"
         sodipodi:nodetypes="ccccccccc"
         transform="matrix(0.85023524,0,0,0.85023524,-39.066397,-31.357914)" /><path
         style="fill:#18355d;fill-opacity:1;stroke:#18355d;stroke-width:1.17615;stroke-miterlimit:1;stroke-dasharray:none;stroke-opacity:1"
         d="m 90.30667,82.443201 12.60706,7.891243 a 1.2620046,1.2620046 92.204338 0 1 -0.0842,2.187759 l -13.013995,6.81378 a 1.2758209,1.2758209 32.25495 0 1 -1.866708,-1.17803 l 0.552856,-14.75884 a 1.1798368,1.1798368 152.09464 0 1 1.804997,-0.955912 z"
         id="path6"
         inkscape:path-effect="#path-effect6"
         inkscape:original-d="M 88.578013,81.361168 104.77858,91.501726 87.866463,100.35646 Z"
         transform="matrix(0.85023524,0,0,0.85023524,-39.066397,-31.357914)" /><rect
         style="fill:#000000;fill-opacity:1;stroke:#18355d;stroke-width:1.8941;stroke-dasharray:none;stroke-opacity:1"
         id="rect6"
         width="39.198524"
         height="0.88157308"
         x="20.069666"
         y="-59.745258"
         transform="scale(1,-1)"
         rx="0.11426526"
         ry="0.11426526" /></g></g></svg>
